<svg width="62" height="60" viewBox="0 0 62 60" fill="none" xmlns="http://www.w3.org/2000/svg">
<path d="M54.0417 51.8895V3.24336C54.0417 1.46014 52.5307 0 50.6881 0H11.3094C9.46676 0 7.95795 1.46014 7.95795 3.24336V6.48671V51.8916V56.7566C7.95795 58.542 9.46676 60 11.3094 60H50.6881C51.9151 60 52.9882 59.3455 53.5713 58.3783H14.6609C12.8182 58.3783 11.3094 56.9203 11.3094 55.1371H50.6881C52.5329 55.135 54.0417 53.6769 54.0417 51.8895ZM19.4063 43.393C18.8079 43.972 17.8368 43.972 17.2384 43.393C16.6423 42.8161 16.6423 41.8741 17.2406 41.2951L26.7942 32.0476L28.9621 34.1455L19.4063 43.393ZM42.6649 43.5231C42.0644 44.1042 41.0933 44.1 40.4928 43.5231L24.247 27.7993C24.1755 27.7301 24.1386 27.6441 24.0823 27.5664C21.7302 28.649 18.3592 27.8706 15.851 25.4434C12.8616 22.5483 12.2568 18.4406 14.4983 16.2692C16.7398 14.1 20.9844 14.6874 23.9739 17.5804C26.4821 20.0077 27.2863 23.272 26.1677 25.5483C26.2501 25.6007 26.339 25.6343 26.4127 25.7056L42.6606 41.4273C43.2568 42.0063 43.2611 42.9462 42.6649 43.5231ZM48.6135 20.8951L41.6526 27.6315C41.5984 27.6839 41.5333 27.7154 41.4705 27.749C39.0945 29.7944 36.6557 29.8091 34.67 28.5734C34.631 28.6196 34.6158 28.6762 34.5681 28.7182L32.9726 30.2643L30.8047 28.1685L32.4046 26.6203C32.4479 26.5783 32.5065 26.5615 32.5542 26.5259C31.2751 24.6021 31.2903 22.2399 33.4061 19.9448C33.4408 19.886 33.469 19.821 33.5254 19.7706L40.4863 13.0322C40.8071 12.7196 41.3296 12.7196 41.6504 13.0322C41.9712 13.3427 41.9712 13.8462 41.6461 14.1566L34.9171 20.6685L36.0769 21.793L42.808 15.279C43.1245 14.9685 43.647 14.9685 43.9678 15.279C44.2843 15.5874 44.2843 16.0888 43.9678 16.4014L37.2389 22.9154L38.403 24.0399L45.1319 17.528C45.4528 17.2175 45.9709 17.2154 46.2917 17.5259C46.6126 17.8364 46.6126 18.3399 46.2917 18.6504L39.5628 25.1622L40.7226 26.2846L47.4515 19.7706C47.7723 19.4601 48.2948 19.4601 48.6113 19.7706C48.9343 20.079 48.9343 20.5846 48.6135 20.8951Z" fill="#F9FAF9"/>
</svg>
