<svg width="27" height="21" viewBox="0 0 27 21" fill="none" xmlns="http://www.w3.org/2000/svg">
<path d="M16.6819 6.94273C16.4625 6.72335 16.1058 6.72335 15.8865 6.94273C15.6671 7.1621 15.6671 7.51985 15.8865 7.73812C16.5232 8.37489 16.8753 9.22201 16.8753 10.1242C16.8753 11.985 15.3611 13.4992 13.5003 13.4992C12.5981 13.4992 11.751 13.1482 11.1142 12.5104C10.8948 12.291 10.5382 12.291 10.3188 12.5104C10.0995 12.7286 10.0995 13.0864 10.3188 13.3058C11.1671 14.1563 12.2977 14.6243 13.5003 14.6243C15.9821 14.6243 18.0003 12.606 18.0003 10.1243C18.0003 8.92159 17.5324 7.79096 16.6819 6.94273Z" fill="#BBB4B6"/>
<path d="M14.2846 5.70177C14.0292 5.65679 13.7682 5.62415 13.5005 5.62415C11.0187 5.62415 9.00049 7.64239 9.00049 10.1241C9.00049 10.3919 9.03313 10.6529 9.07922 10.9082C9.12758 11.1805 9.36499 11.3729 9.63161 11.3729C9.66426 11.3729 9.69685 11.3706 9.7306 11.3639C10.0355 11.3099 10.2402 11.0173 10.1862 10.7125C10.1514 10.5212 10.1255 10.3266 10.1255 10.1241C10.1255 8.26339 11.6397 6.74913 13.5005 6.74913C13.703 6.74913 13.8976 6.77502 14.0888 6.80877C14.3881 6.86952 14.6862 6.658 14.7402 6.35314C14.7942 6.04829 14.5895 5.75577 14.2846 5.70177Z" fill="#BBB4B6"/>
<path d="M26.8666 9.76083C26.7395 9.61006 23.6964 6.05846 19.499 3.88386C19.2267 3.741 18.8836 3.849 18.7407 4.12575C18.5979 4.40139 18.7059 4.74111 18.9826 4.88402C22.2159 6.55801 24.7988 9.17026 25.682 10.1243C24.341 11.5766 19.0636 16.8743 13.5005 16.8743C11.6128 16.8743 9.7104 16.4186 7.84403 15.5186C7.56728 15.3825 7.22867 15.5006 7.09367 15.7808C6.95756 16.0598 7.07569 16.3961 7.35581 16.5311C9.37517 17.5065 11.4429 17.9992 13.5006 17.9992C20.4317 17.9992 26.6079 10.7947 26.8678 10.4876C27.0455 10.2783 27.0444 9.97119 26.8666 9.76083Z" fill="#BBB4B6"/>
<path d="M17.1912 2.89714C15.911 2.46625 14.669 2.24915 13.5001 2.24915C6.56892 2.24915 0.392683 9.45365 0.132809 9.76078C-0.0314586 9.95426 -0.0449586 10.2355 0.101326 10.4459C0.178951 10.5573 2.03857 13.1976 5.26169 15.3385C5.3573 15.4027 5.46419 15.433 5.57219 15.433C5.75333 15.433 5.93221 15.3453 6.04021 15.1799C6.21233 14.9223 6.14146 14.5724 5.88269 14.4014C3.51571 12.8275 1.89572 10.9274 1.28932 10.1545C2.58421 8.74828 7.89645 3.37418 13.5001 3.37418C14.5474 3.37418 15.6691 3.5722 16.8323 3.96253C17.127 4.06827 17.4465 3.90516 17.5444 3.60927C17.6434 3.31454 17.4859 2.99618 17.1912 2.89714Z" fill="#BBB4B6"/>
<path d="M23.4601 0.164531C23.2407 -0.0548436 22.8841 -0.0548436 22.6647 0.164531L3.53978 19.2895C3.3204 19.5089 3.3204 19.8655 3.53978 20.0849C3.65004 20.194 3.79401 20.2492 3.93802 20.2492C4.08204 20.2492 4.22601 20.1941 4.33517 20.0849L23.4601 0.959922C23.6795 0.740547 23.6795 0.383905 23.4601 0.164531Z" fill="#BBB4B6"/>
</svg>
