<svg width="27" height="16" viewBox="0 0 27 16" fill="none" xmlns="http://www.w3.org/2000/svg">
<path d="M26.9 7.55563C26.6874 7.24623 21.5775 0 13.4999 0C6.56868 0 0.392337 7.20462 0.132458 7.51175C-0.0441525 7.721 -0.0441525 8.02813 0.132458 8.23849C0.392337 8.54562 6.56868 15.7502 13.4999 15.7502C20.4312 15.7502 26.6075 8.54562 26.8674 8.23849C27.0305 8.04501 27.0451 7.76488 26.9 7.55563ZM13.4999 14.6252C7.94349 14.6252 2.66037 9.32642 1.31826 7.87515C2.65816 6.42277 7.93563 1.12505 13.4999 1.12505C20.0014 1.12505 24.5904 6.41602 25.7109 7.84477C24.4171 9.2499 19.1036 14.6252 13.4999 14.6252Z" fill="#BBB4B6"/>
<path d="M13.4996 3.37506C11.0178 3.37506 8.99951 5.39334 8.99951 7.87511C8.99951 10.3569 11.0178 12.3752 13.4996 12.3752C15.9813 12.3752 17.9996 10.3569 17.9996 7.87511C17.9996 5.39334 15.9813 3.37506 13.4996 3.37506ZM13.4996 11.2502C11.6388 11.2502 10.1245 9.73593 10.1245 7.87517C10.1245 6.0144 11.6388 4.50011 13.4996 4.50011C15.3603 4.50011 16.8746 6.0144 16.8746 7.87517C16.8746 9.73593 15.3603 11.2502 13.4996 11.2502Z" fill="#BBB4B6"/>
</svg>
