<svg width="27" height="27" viewBox="0 0 27 27" fill="none" xmlns="http://www.w3.org/2000/svg">
<g clip-path="url(#clip0)">
<path d="M26.2977 22.9566L15.7105 12.3694L3.34113 0H2.37445L2.17707 0.501557C1.65611 1.8254 1.43351 3.17941 1.53344 4.41703C1.64735 5.82778 2.18329 7.04916 3.08341 7.94929L12.7396 17.6055L14.0132 16.3318L22.9404 26.3141C23.8284 27.2021 25.3569 27.2549 26.2977 26.3141C27.2234 25.3884 27.2234 23.8823 26.2977 22.9566Z" fill="#F9FAF9"/>
<path d="M8.26494 15.369L0.702252 22.9317C-0.223342 23.8573 -0.223342 25.3634 0.702252 26.289C1.58154 27.1683 3.10267 27.2459 4.05959 26.289L11.6223 18.7263L8.26494 15.369Z" fill="#F9FAF9"/>
<path d="M25.8532 4.49554L21.5632 8.78549L20.444 7.66636L24.734 3.37636L23.6149 2.25723L19.3249 6.54717L18.2058 5.42805L22.4958 1.1381L21.3767 0.0190277L15.7811 5.61467C15.0965 6.29922 14.6878 7.20815 14.63 8.17414C14.6154 8.41888 14.5599 8.65961 14.4679 8.88858L18.1028 12.5235C18.3318 12.4314 18.5726 12.376 18.8173 12.3614C19.7833 12.3037 20.6922 11.8949 21.3767 11.2103L26.9724 5.61473L25.8532 4.49554Z" fill="#F9FAF9"/>
</g>
<defs>
<clipPath id="clip0">
<rect width="27" height="27" fill="white"/>
</clipPath>
</defs>
</svg>
