<svg width="74" height="66" viewBox="0 0 74 66" fill="none" xmlns="http://www.w3.org/2000/svg">
<path d="M64.5015 57.0785V3.56769C64.5015 1.60615 62.6981 0 60.4988 0H13.4984C11.2991 0 9.49829 1.60615 9.49829 3.56769V7.13538V57.0808V62.4323C9.49829 64.3962 11.2991 66 13.4984 66H60.4988C61.9633 66 63.244 65.28 63.94 64.2162H17.4986C15.2993 64.2162 13.4984 62.6123 13.4984 60.6508H60.4988C62.7007 60.6485 64.5015 59.0446 64.5015 57.0785ZM23.1624 47.7323C22.4483 48.3692 21.2891 48.3692 20.575 47.7323C19.8635 47.0977 19.8635 46.0615 20.5776 45.4246L31.9803 35.2523L34.5677 37.56L23.1624 47.7323ZM50.9228 47.8754C50.2061 48.5146 49.0469 48.51 48.3302 47.8754L28.9401 30.5792C28.8547 30.5031 28.8107 30.4085 28.7435 30.3231C25.9361 31.5138 21.9127 30.6577 18.9191 27.9877C15.351 24.8031 14.6291 20.2846 17.3045 17.8962C19.9799 15.51 25.0461 16.1562 28.6141 19.3385C31.6077 22.0085 32.5677 25.5992 31.2326 28.1031C31.3309 28.1608 31.437 28.1977 31.5249 28.2762L50.9176 45.57C51.6291 46.2069 51.6343 47.2408 50.9228 47.8754ZM58.0226 22.9846L49.7144 30.3946C49.6498 30.4523 49.5721 30.4869 49.4971 30.5238C46.6613 32.7738 43.7505 32.79 41.3804 31.4308C41.3338 31.4815 41.3157 31.5438 41.2588 31.59L39.3544 33.2908L36.767 30.9854L38.6765 29.2823C38.7283 29.2362 38.7982 29.2177 38.8551 29.1785C37.3285 27.0623 37.3466 24.4638 39.8719 21.9392C39.9133 21.8746 39.947 21.8031 40.0142 21.7477L48.3224 14.3354C48.7054 13.9915 49.3289 13.9915 49.7119 14.3354C50.0948 14.6769 50.0948 15.2308 49.7067 15.5723L41.6754 22.7354L43.0596 23.9723L51.0935 16.8069C51.4713 16.4654 52.0949 16.4654 52.4778 16.8069C52.8556 17.1462 52.8556 17.6977 52.4778 18.0415L44.4465 25.2069L45.8359 26.4438L53.8672 19.2808C54.2502 18.9392 54.8686 18.9369 55.2515 19.2785C55.6344 19.62 55.6344 20.1738 55.2515 20.5154L47.2202 27.6785L48.6044 28.9131L56.6358 21.7477C57.0187 21.4062 57.6423 21.4062 58.02 21.7477C58.4056 22.0869 58.4056 22.6431 58.0226 22.9846Z" fill="#961111"/>
</svg>
